<svg width="1440" height="1024" viewBox="0 0 1440 1024" fill="none" xmlns="http://www.w3.org/2000/svg">
<rect width="1440" height="1024" fill="white"/>
<rect x="424" y="188" width="191" height="114" rx="50" fill="white"/>
<path d="M470.3 227.6L469.9 217.3C469.9 216.9 469.9 216.567 469.9 216.3C469.367 216.767 468.167 217.367 466.3 218.1C464.433 218.767 462.8 220.033 461.4 221.9C460 223.7 459.3 225.233 459.3 226.5C459.3 227.7 459.5 228.8 459.9 229.8C460.3 230.733 460.867 231.2 461.6 231.2C463.4 231.2 464.3 229.9 464.3 227.3C464.3 226.7 464.267 226.133 464.2 225.6C464.133 225.067 464.233 224.733 464.5 224.6C464.833 224.4 465.167 224.367 465.5 224.5C465.9 224.567 466.1 224.833 466.1 225.3C466.167 225.7 466.2 226.4 466.2 227.4C466.2 228.333 465.867 229.533 465.2 231C464.6 232.467 463.433 233.2 461.7 233.2C458.5 233.2 456.9 231.1 456.9 226.9C456.833 224.833 457.667 222.733 459.4 220.6C461.2 218.467 463.033 217.033 464.9 216.3C467.833 215.167 469.633 213.533 470.3 211.4C470.433 210.8 470.833 210.5 471.5 210.5C471.767 210.633 471.933 210.8 472 211L472.1 212.1C472.1 212.433 472.1 213.133 472.1 214.2C472.1 215.267 472.167 216.967 472.3 219.3C472.5 221.633 472.933 224.8 473.6 228.8C474.267 232.8 474.633 235.633 474.7 237.3C474.833 238.9 475.067 240.667 475.4 242.6C475.867 245.8 476.1 249.267 476.1 253C476.167 253.133 476.2 253.4 476.2 253.8C476.2 254.133 476.133 254.733 476 255.6C475.933 256.467 475.933 257.033 476 257.3C476.067 257.5 476 258.167 475.8 259.3C475.6 260.367 475.5 261 475.5 261.2C475.5 261.4 475.367 262.033 475.1 263.1C474.9 264.167 474.767 264.8 474.7 265C474.7 265.2 474.533 265.833 474.2 266.9C473.933 267.967 473.8 268.6 473.8 268.8C472.667 274.2 470.4 278.533 467 281.8C463.667 285.133 460.433 286.8 457.3 286.8C456.7 286.8 455.567 286.367 453.9 285.5C452.233 284.7 451.233 284.067 450.9 283.6C449.767 282.333 448.867 280.4 448.2 277.8C447.533 275.133 447.2 272.633 447.2 270.3C447.2 265.367 449.033 260.633 452.7 256.1C454.433 254.167 456.4 253.2 458.6 253.2C460.8 253.2 462.367 254.033 463.3 255.7C464.3 257.3 464.8 259.3 464.8 261.7C464.8 264.033 464.7 265.733 464.5 266.8C464.3 267.8 463.467 269.433 462 271.7C460.6 273.9 459.3 275 458.1 275C458.033 275 457.967 275 457.9 275C456.567 275 455.5 274.367 454.7 273.1C453.9 271.767 453.5 270.567 453.5 269.5C453.5 268.433 453.6 267.633 453.8 267.1C454.067 266.5 454.2 265.967 454.2 265.5C454.267 265.033 454.667 264.733 455.4 264.6C456.133 264.467 456.533 264.833 456.6 265.7C456.6 266.167 456.5 266.7 456.3 267.3C456.1 267.9 456 268.4 456 268.8C456 271.133 456.667 272.3 458 272.3C459.067 272.233 460.067 271.167 461 269.1C461.933 267.033 462.4 265.5 462.4 264.5C462.467 263.433 462.533 262.667 462.6 262.2C462.6 257.733 461.2 255.5 458.4 255.5C455.667 255.5 453.433 257.267 451.7 260.8C450.033 264.333 449.233 267.6 449.3 270.6C449.3 275.533 450.467 279.3 452.8 281.9C453.067 282.167 453.767 282.533 454.9 283C456.1 283.467 456.9 283.7 457.3 283.7C459.767 283.7 462.067 282.4 464.2 279.8C466.333 277.133 467.8 274.333 468.6 271.4C470.2 265.467 471 260.1 471 255.3C471.067 250.5 470.933 246.167 470.6 242.3C470.333 238.433 470.2 235.367 470.2 233.1L470.3 227.6ZM505.454 283.5C501.187 283.5 497.387 282.267 494.054 279.8C490.787 277.333 488.254 274.233 486.454 270.5C484.721 266.7 483.387 262.9 482.454 259.1C481.587 255.3 481.154 251.7 481.154 248.3C481.154 244.9 481.487 241.867 482.154 239.2C483.687 233.267 487.354 227.5 493.154 221.9C498.954 216.3 504.787 213.5 510.654 213.5C513.321 213.5 515.887 214.867 518.354 217.6C520.821 220.267 522.054 222.9 522.054 225.5C522.054 228.033 521.121 230.733 519.254 233.6C517.454 236.467 515.387 237.9 513.054 237.9C511.787 237.9 510.454 237.5 509.054 236.7C507.721 235.833 507.054 234.833 507.054 233.7C507.054 231.5 507.687 229.633 508.954 228.1C509.354 227.633 510.554 226.933 512.554 226C512.954 225.867 513.287 225.933 513.554 226.2C513.821 226.467 513.921 226.767 513.854 227.1C513.854 227.433 513.654 227.667 513.254 227.8H513.154C512.154 228.267 511.321 229.067 510.654 230.2C509.987 231.333 509.654 232.367 509.654 233.3C509.654 234.233 510.021 234.933 510.754 235.4C511.487 235.8 512.254 236 513.054 236C514.721 236 516.321 234.833 517.854 232.5C519.387 230.1 520.154 227.933 520.154 226C520.221 224 519.387 221.933 517.654 219.8C515.921 217.6 513.521 216.5 510.454 216.5C505.387 216.5 500.721 219.133 496.454 224.4C490.121 232.333 486.954 240.467 486.954 248.8C486.954 255.867 488.587 262.433 491.854 268.5C495.187 274.567 499.654 277.6 505.254 277.6C505.321 277.6 505.387 277.6 505.454 277.6C509.787 277.6 512.987 276.567 515.054 274.5C519.054 270.767 521.054 267.433 521.054 264.5C521.054 262.633 520.621 260.933 519.754 259.4C518.887 257.8 517.554 257 515.754 257C513.954 257 512.654 257.8 511.854 259.4C511.121 261 510.754 262.3 510.754 263.3C510.754 264.233 510.787 264.933 510.854 265.4C510.921 265.867 510.787 266.233 510.454 266.5C510.187 266.7 509.887 266.733 509.554 266.6C509.021 266.467 508.754 265.5 508.754 263.7C508.754 261.833 509.187 260.067 510.054 258.4C511.321 256.067 513.287 254.9 515.954 254.9C518.621 254.9 520.887 255.9 522.754 257.9C524.621 259.833 525.521 262.067 525.454 264.6C525.454 267.133 524.854 269.7 523.654 272.3C522.454 274.9 520.954 277.1 519.154 278.9C515.754 281.967 511.187 283.5 505.454 283.5ZM541.489 212.7L548.289 212.1C554.489 212.1 559.889 212.867 564.489 214.4C565.889 211.733 567.956 210.167 570.689 209.7C571.089 209.633 571.389 209.733 571.589 210C571.789 210.267 571.822 210.6 571.689 211C571.622 211.333 571.389 211.533 570.989 211.6C568.856 212 567.322 213.167 566.389 215.1C568.389 215.967 569.722 216.567 570.389 216.9C571.056 217.233 572.022 217.5 573.289 217.7C574.622 217.833 577.122 218.333 580.789 219.2C584.456 220.067 586.889 220.5 588.089 220.5C589.289 220.5 590.122 220.6 590.589 220.8C591.122 221 591.556 221.067 591.889 221C593.356 220.8 594.556 220.167 595.489 219.1C596.422 218.033 596.889 216.633 596.889 214.9C596.889 213.167 596.056 211.733 594.389 210.6C592.722 209.4 590.956 208.8 589.089 208.8C588.889 208.8 588.689 208.8 588.489 208.8C587.889 208.8 587.589 208.467 587.589 207.8C587.589 207.133 587.889 206.767 588.489 206.7C591.422 206.7 594.122 207.5 596.589 209.1C599.056 210.633 600.289 212.633 600.289 215.1C600.289 217.5 599.522 219.467 597.989 221C596.456 222.533 594.556 223.467 592.289 223.8L589.489 224.6C586.489 224.6 581.089 224.033 573.289 222.9C571.622 222.633 569.022 221.567 565.489 219.7C565.422 220.5 565.389 221.633 565.389 223.1C565.389 224.567 565.622 226.1 566.089 227.7C569.822 241.167 571.689 252.833 571.689 262.7C571.689 267.767 570.789 272.4 568.989 276.6C567.989 278.8 566.522 280.567 564.589 281.9C562.722 283.233 560.456 283.9 557.789 283.9C555.189 283.9 552.889 282.467 550.889 279.6C548.956 276.733 547.989 274.133 547.989 271.8C547.989 269.467 548.622 267.533 549.889 266C551.222 264.4 552.689 263.6 554.289 263.6C555.956 263.6 557.256 264.133 558.189 265.2C559.189 266.267 559.689 267.533 559.689 269C559.622 271.8 558.389 273.2 555.989 273.2C554.456 273.2 553.622 272.967 553.489 272.5C553.422 272.033 553.489 271.667 553.689 271.4C553.956 271.133 554.422 271.067 555.089 271.2C555.756 271.333 556.356 271.233 556.889 270.9C557.422 270.567 557.656 269.967 557.589 269.1C557.589 268.167 557.289 267.433 556.689 266.9C556.089 266.367 555.289 266.1 554.289 266.1C553.356 266.1 552.489 266.633 551.689 267.7C550.956 268.767 550.589 270.033 550.589 271.5C550.589 272.9 551.356 274.5 552.889 276.3C554.422 278.033 556.056 278.933 557.789 279C558.722 279 559.889 278.433 561.289 277.3C562.689 276.1 563.789 274.133 564.589 271.4C565.456 268.667 565.889 265.567 565.889 262.1C565.889 258.633 565.289 253.367 564.089 246.3C562.889 239.167 562.289 234.233 562.289 231.5C562.289 228.767 562.656 224.6 563.389 219L563.289 218.8C561.822 218.2 560.456 217.7 559.189 217.3C557.989 216.9 556.889 216.533 555.889 216.2C554.889 215.867 554.056 215.633 553.389 215.5C551.256 215.1 549.556 214.9 548.289 214.9L541.489 215.5C538.156 215.567 535.056 216.867 532.189 219.4C529.389 221.933 527.989 224.867 527.989 228.2C527.989 230.333 528.356 232.533 529.089 234.8C529.889 237.067 531.089 238.2 532.689 238.2C534.956 238.2 537.489 236.5 540.289 233.1C543.089 229.7 544.489 226.967 544.489 224.9C544.489 222.633 543.922 221.5 542.789 221.5C542.056 221.5 541.222 221.9 540.289 222.7C539.356 223.5 538.656 224.267 538.189 225C537.789 225.667 537.289 225.833 536.689 225.5C536.156 225.167 536.122 224.6 536.589 223.8C537.056 223 537.889 222.1 539.089 221.1C540.356 220.1 541.589 219.6 542.789 219.6C545.256 219.667 546.489 221.4 546.489 224.8C546.556 226.933 545.789 229.6 544.189 232.8C541.056 239.067 537.156 242.2 532.489 242.2C530.089 242.2 528.256 240.6 526.989 237.4C525.656 234.2 524.989 231.2 524.989 228.4C525.056 224.2 526.789 220.533 530.189 217.4C533.656 214.267 537.356 212.7 541.289 212.7C541.356 212.7 541.422 212.7 541.489 212.7Z" fill="black"/>
</svg>
